<?xml version="1.0" standalone="no"?><!DOCTYPE svg PUBLIC "-//W3C//DTD SVG 1.1//EN" "http://www.w3.org/Graphics/SVG/1.1/DTD/svg11.dtd"><svg t="1582104192696" class="icon" viewBox="0 0 1024 1024" version="1.1" xmlns="http://www.w3.org/2000/svg" p-id="600" xmlns:xlink="http://www.w3.org/1999/xlink" width="200" height="200"><defs><style type="text/css"></style></defs><path d="M187.898069 1024c-10.378378 0-20.855598-1.284942-31.233976-3.755985-33.705019-8.203861-62.072587-28.861776-80.061776-58.21776-12.750579-19.17529-19.669498-43.292664-19.669498-67.805406V167.338996c0-44.577606 17.494981-86.486486 49.124324-118.214672S179.694208 0 224.271815 0h553.414671c45.071815 0 87.27722 17.791506 118.906564 50.0139 31.036293 31.728185 47.542857 73.439382 46.653282 117.52278v724.806177c0 71.956757-58.514286 130.471042-130.471042 130.471043-24.512741 0-48.630116-7.017761-67.904248-19.76834L513.087259 859.626255c-6.227027-3.459459-13.047104-3.657143-17.692664-0.59305l-0.691892 0.395366-239.789962 145.791506c-20.559073 12.454054-43.490347 18.779923-67.014672 18.779923z m36.373746-984.46332c-70.474131 0-127.802317 57.328185-127.802317 127.802316v726.881853c0 17.000772 4.744402 33.408494 13.244788 46.257915l0.494208 0.691892c12.454054 20.460232 32.222394 34.89112 55.84556 40.623939 23.524324 5.732819 47.839382 2.075676 68.299614-10.378379L473.847104 825.822394c17.297297-11.267954 39.833205-11.465637 59.107336-0.494209l0.59305 0.395367 232.772201 144.111197 0.296525 0.197683c12.849421 8.599228 29.257143 13.244788 46.257915 13.244788 50.112741 0 90.934363-40.821622 90.934363-90.934363V166.943629c0.790734-33.408494-11.762162-65.13668-35.385328-89.254054-24.018533-24.611583-56.240927-38.152896-90.637838-38.152895h-553.513513z" fill="#888888" p-id="601"></path><path d="M659.17529 258.273359h-316.293437c-21.745174 0-39.53668 8.895753-39.536679 19.76834s17.791506 19.76834 39.536679 19.76834h316.293437c21.745174 0 39.53668-8.895753 39.536679-19.76834s-17.791506-19.76834-39.536679-19.76834z m0 0" fill="#888888" p-id="602"></path></svg>