<?xml version="1.0" standalone="no"?><!DOCTYPE svg PUBLIC "-//W3C//DTD SVG 1.1//EN" "http://www.w3.org/Graphics/SVG/1.1/DTD/svg11.dtd"><svg t="1582166430238" class="icon" viewBox="0 0 1024 1024" version="1.1" xmlns="http://www.w3.org/2000/svg" p-id="1150" xmlns:xlink="http://www.w3.org/1999/xlink" width="200" height="200"><defs><style type="text/css"></style></defs><path d="M903.722662 125.405305h-174.285192c-12.391776 0-22.438504-10.045512-22.438503-22.438504s10.046728-22.438504 22.438503-22.438504h174.285192c12.392992 0 22.438504 10.045512 22.438504 22.438504s-10.046728 22.438504-22.438504 22.438504zM903.722662 346.765378h-186.448301c-12.391776 0-22.438504-10.045512-22.438504-22.438504s10.046728-22.438504 22.438504-22.438504h186.448301c12.392992 0 22.438504 10.045512 22.438504 22.438504s-10.046728 22.438504-22.438504 22.438504zM903.722662 568.125451h-101.306536c-12.391776 0-22.438504-10.045512-22.438504-22.438504 0-12.391776 10.046728-22.438504 22.438504-22.438504h101.306536c12.392992 0 22.438504 10.045512 22.438504 22.438504 0 12.391776-10.046728 22.438504-22.438504 22.438504zM470.349865 125.916155c39.830534 0 77.31602 15.983542 105.551462 45.007153 28.509112 29.305795 44.210469 68.321401 44.210469 109.863284 0 41.540667-15.700141 80.556272-44.209253 109.859635-28.235442 29.022395-65.720928 45.00472-105.552678 45.00472-39.832966 0-77.319669-15.983542-105.553894-45.00472-28.507895-29.303363-44.208037-68.318968-44.208037-109.859635 0-41.541883 15.700141-80.558705 44.209253-109.863284 28.234225-29.022395 65.719712-45.007153 105.552678-45.007153m0-44.821057c-107.701899 0-194.582988 89.632384-194.582988 199.691494 0 110.056677 86.881089 199.686629 194.582988 199.686629 107.697034 0 194.582988-89.628735 194.582988-199.686629 0-110.05911-86.885954-199.691494-194.582988-199.691494zM575.658065 568.069501c111.856817 0 208.29811 144.535443 220.3554 329.591067h-54.645201c-16.960239 0-33.02649-8.093333-42.978346-21.650334-42.181663-57.462177-94.300586-87.834677-150.720384-87.834677H393.026547c-56.441692 0-108.569129 30.3725-150.748359 87.833461-9.951856 13.558218-26.019323 21.652767-42.979562 21.652767H144.6814c12.051209-185.053192 108.492501-329.591068 220.356617-329.591068h210.620048m0-44.822274H365.038017c-139.721284 0-252.664267 164.739584-265.281061 374.674849-1.448626 24.046467 13.772289 44.558334 33.060547 44.558334h66.482339c31.217836 0 60.639181-14.786692 79.111295-39.952165 32.105743-43.739757 71.633415-69.534063 114.616627-69.534063h154.64177c42.958885 0 82.481692 25.797955 114.589868 69.536496 18.472114 25.164257 47.893459 39.949732 79.110079 39.949732h66.509097c19.293124 0 34.51039-20.511867 33.060547-44.564416-12.622875-209.898775-125.629106-374.668767-265.28106-374.668767z" p-id="1151"></path></svg>