<?xml version="1.0" standalone="no"?><!DOCTYPE svg PUBLIC "-//W3C//DTD SVG 1.1//EN" "http://www.w3.org/Graphics/SVG/1.1/DTD/svg11.dtd"><svg t="1586220464095" class="icon" viewBox="0 0 1024 1024" version="1.1" xmlns="http://www.w3.org/2000/svg" p-id="3814" xmlns:xlink="http://www.w3.org/1999/xlink" width="200" height="200"><defs><style type="text/css"></style></defs><path d="M827.164444 684.088889h-630.518518c-18.014815 0-32.711111-14.696296-32.711111-32.711111V278.565926c0-18.014815 14.696296-32.711111 32.711111-32.711111h630.423704c18.014815 0 32.711111 14.696296 32.711111 32.711111V651.377778c0.094815 18.10963-14.601481 32.711111-32.616297 32.711111z m-620.562963-42.666667h610.512593V288.521481H206.601481v352.900741z" p-id="3815"></path><path d="M874.571852 684.088889h-725.333333c-11.757037 0-21.333333-9.576296-21.333334-21.333333s9.576296-21.333333 21.333334-21.333334h725.333333c11.757037 0 21.333333 9.576296 21.333333 21.333334s-9.576296 21.333333-21.333333 21.333333zM656.971852 364.752593H185.268148c-11.757037 0-21.333333-9.576296-21.333333-21.333334s9.576296-21.333333 21.333333-21.333333h471.703704c11.757037 0 21.333333 9.576296 21.333333 21.333333s-9.576296 21.333333-21.333333 21.333334zM838.542222 364.752593h-74.619259c-11.757037 0-21.333333-9.576296-21.333333-21.333334s9.576296-21.333333 21.333333-21.333333h74.619259c11.757037 0 21.333333 9.576296 21.333334 21.333333s-9.576296 21.333333-21.333334 21.333334zM278.376296 288.426667c-11.757037 0-21.333333-9.576296-21.333333-21.333334v-56.509629c0-11.757037 9.576296-21.333333 21.333333-21.333334s21.333333 9.576296 21.333334 21.333334v56.509629c0 11.757037-9.576296 21.333333-21.333334 21.333334zM744.675556 288.426667c-11.757037 0-21.333333-9.576296-21.333334-21.333334v-56.509629c0-11.757037 9.576296-21.333333 21.333334-21.333334s21.333333 9.576296 21.333333 21.333334v56.509629c0 11.757037-9.576296 21.333333-21.333333 21.333334zM303.786667 170.666667h-50.820741c-11.757037 0-21.333333-9.576296-21.333333-21.333334s9.576296-21.333333 21.333333-21.333333h50.820741c11.757037 0 21.333333 9.576296 21.333333 21.333333s-9.481481 21.333333-21.333333 21.333334zM770.085926 170.666667h-50.820741c-11.757037 0-21.333333-9.576296-21.333333-21.333334s9.576296-21.333333 21.333333-21.333333h50.820741c11.757037 0 21.333333 9.576296 21.333333 21.333333S781.842963 170.666667 770.085926 170.666667zM512.094815 896c-11.757037 0-21.333333-9.576296-21.333334-21.333333V761.647407c0-11.757037 9.576296-21.333333 21.333334-21.333333s21.333333 9.576296 21.333333 21.333333v113.01926c0 11.757037-9.576296 21.333333-21.333333 21.333333z" p-id="3816"></path><path d="M588.325926 896h-152.651852c-11.757037 0-21.333333-9.576296-21.333333-21.333333s9.576296-21.333333 21.333333-21.333334h152.557037c11.757037 0 21.333333 9.576296 21.333333 21.333334s-9.481481 21.333333-21.238518 21.333333z" p-id="3817"></path></svg>