<?xml version="1.0" standalone="no"?><!DOCTYPE svg PUBLIC "-//W3C//DTD SVG 1.1//EN" "http://www.w3.org/Graphics/SVG/1.1/DTD/svg11.dtd"><svg t="1582180915415" class="icon" viewBox="0 0 1288 1024" version="1.1" xmlns="http://www.w3.org/2000/svg" p-id="4702" xmlns:xlink="http://www.w3.org/1999/xlink" width="251.5625" height="200"><defs><style type="text/css"></style></defs><path d="M148.645161 1007.483871a132.129032 132.129032 0 0 1-132.129032-132.129032v-726.709678a132.129032 132.129032 0 0 1 132.129032-132.129032h990.967742a132.129032 132.129032 0 0 1 132.129032 132.129032v726.709678a132.129032 132.129032 0 0 1-132.129032 132.129032z m957.935484-99.096774a66.064516 66.064516 0 0 0 66.064516-66.064516v-660.645162a66.064516 66.064516 0 0 0-66.064516-66.064516h-924.903226a66.064516 66.064516 0 0 0-66.064516 66.064516v660.645162a66.064516 66.064516 0 0 0 66.064516 66.064516h116.240516v-84.793807h92.787613V908.387097h460.040258v-84.793807h92.820646V908.387097zM192.082581 768.495484a201.00129 201.00129 0 0 1-41.68671-121.889032 186.334968 186.334968 0 0 1 120.171355-189.572129 206.55071 206.55071 0 0 0 120.204387 40.629677c38.945032 0 96.454194-10.702452 120.171355-40.629677 84.034065 33.725935 119.973161 101.210839 119.973161 189.572129a200.968258 200.968258 0 0 1-41.653677 121.889032zM686.773677 680.464516v-92.820645h441.839484v92.820645z m0-159.479742v-92.820645h441.839484v92.820645zM248.53471 341.916903a142.03871 142.03871 0 1 1 142.038709 142.03871 142.03871 142.03871 0 0 1-142.038709-142.03871z m438.238967 19.555097v-92.820645h441.839484v92.820645z" p-id="4703"></path></svg>