<?xml version="1.0" standalone="no"?><!DOCTYPE svg PUBLIC "-//W3C//DTD SVG 1.1//EN" "http://www.w3.org/Graphics/SVG/1.1/DTD/svg11.dtd"><svg t="1585702154478" class="icon" viewBox="0 0 1024 1024" version="1.1" xmlns="http://www.w3.org/2000/svg" p-id="3110" xmlns:xlink="http://www.w3.org/1999/xlink" width="200" height="200"><defs><style type="text/css"></style></defs><path d="M508.08832 105.73824c36.16768 0 69.81632 14.29504 94.208 37.84704 23.552 23.53152 38.68672 56.34048 38.68672 92.52864 0 36.12672-15.11424 68.096-38.68672 91.66848-24.3712 23.53152-58.04032 38.68672-94.208 38.68672-37.00736 0-70.656-15.1552-94.208-38.68672-24.39168-23.552-39.5264-55.52128-39.5264-91.66848 0-36.18816 15.13472-68.99712 39.5264-92.52864C437.43232 120.03328 471.06048 105.73824 508.08832 105.73824L508.08832 105.73824zM571.16672 175.55456c-15.9744-15.1552-38.7072-25.25184-63.0784-25.25184-25.23136 0-47.08352 10.09664-63.91808 25.25184-15.13472 15.11424-25.23136 37.00736-25.23136 60.55936 0 23.53152 10.09664 44.56448 25.23136 60.53888 16.83456 15.1552 38.68672 25.21088 63.91808 25.21088 24.3712 0 47.104-10.07616 63.0784-25.21088 15.99488-15.9744 25.23136-37.00736 25.23136-60.53888C596.39808 212.54144 587.1616 190.6688 571.16672 175.55456L571.16672 175.55456z" p-id="3111"></path><path d="M236.42112 653.25056c36.16768 0 69.81632 14.31552 94.208 37.84704 24.3712 23.552 39.5264 56.36096 39.5264 92.54912 0 36.16768-15.13472 68.11648-39.5264 91.66848-24.39168 23.552-58.01984 37.84704-94.208 37.84704-37.00736 0-69.81632-14.27456-94.208-37.84704-24.39168-23.53152-39.5264-55.5008-39.5264-91.66848 0-36.18816 15.13472-68.97664 39.5264-92.54912C166.6048 667.58656 199.41376 653.25056 236.42112 653.25056L236.42112 653.25056zM299.49952 723.08736c-15.99488-15.9744-38.68672-25.25184-63.0784-25.25184-25.23136 0-47.104 9.27744-63.09888 25.25184-15.9744 15.11424-26.07104 37.00736-26.07104 60.55936 0 23.53152 10.09664 44.56448 26.07104 60.53888 15.99488 15.1552 37.84704 25.23136 63.09888 25.23136 24.39168 0 47.08352-10.07616 63.0784-25.23136 15.9744-15.9744 26.07104-37.00736 26.07104-60.53888C325.57056 760.07424 315.47392 738.2016 299.49952 723.08736L299.49952 723.08736z" p-id="3112"></path><path d="M788.15232 439.62368c37.00736 0 69.81632 14.31552 94.208 37.888 24.39168 23.53152 39.5264 56.32 39.5264 92.50816 0 36.16768-15.11424 68.13696-39.5264 91.66848-24.3712 23.57248-57.20064 37.86752-94.208 37.86752s-69.81632-14.27456-94.18752-37.86752c-24.41216-23.51104-39.54688-55.5008-39.54688-91.66848 0-36.18816 15.11424-68.95616 39.54688-92.50816C718.336 453.9392 751.16544 439.62368 788.15232 439.62368L788.15232 439.62368zM851.23072 509.44c-15.9744-15.99488-38.7072-25.25184-63.0784-25.25184-24.39168 0-47.104 9.25696-63.09888 25.25184-15.95392 15.11424-26.05056 37.00736-26.05056 60.55936 0 23.53152 10.09664 44.58496 26.05056 60.53888 15.99488 15.1552 38.7072 25.25184 63.09888 25.25184 24.3712 0 47.104-10.09664 63.0784-25.25184 15.99488-15.95392 26.07104-37.00736 26.07104-60.53888C877.32224 546.44736 867.24608 524.55424 851.23072 509.44L851.23072 509.44z" p-id="3113"></path><path d="M476.11904 334.49984 305.39776 686.08 265.0112 666.7264 436.59264 315.14624Z" p-id="3114"></path><path d="M604.81536 310.12864 733.4912 457.3184 700.70272 486.74816 571.16672 339.5584Z" p-id="3115"></path></svg>