<?xml version="1.0" standalone="no"?><!DOCTYPE svg PUBLIC "-//W3C//DTD SVG 1.1//EN" "http://www.w3.org/Graphics/SVG/1.1/DTD/svg11.dtd"><svg t="1582093766529" class="icon" viewBox="0 0 1024 1024" version="1.1" xmlns="http://www.w3.org/2000/svg" p-id="10870" xmlns:xlink="http://www.w3.org/1999/xlink" width="200" height="200"><defs><style type="text/css"></style></defs><path d="M0 0m204.8 0l614.4 0q204.8 0 204.8 204.8l0 614.4q0 204.8-204.8 204.8l-614.4 0q-204.8 0-204.8-204.8l0-614.4q0-204.8 204.8-204.8Z" fill="#00BCD4" p-id="10871"></path><path d="M460.8 837.632c0-9.984 1.792-18.944 3.072-27.648 2.048-15.104 4.608-30.208 6.656-45.312 0-7.68 1.792-15.104 2.56-22.784l4.608-35.072c0-6.656 1.792-13.568 2.56-20.48s1.792-20.48 2.816-30.464c0-5.376 1.792-10.752 2.304-16.384a83.2 83.2 0 0 0-6.4-31.744 91.136 91.136 0 0 1-2.816-11.264 5.376 5.376 0 0 1 3.328-3.84h65.536c3.072 0 4.352 0 3.072 4.352-2.56 7.424-4.352 14.848-6.4 22.272a84.48 84.48 0 0 0-2.304 8.96 83.2 83.2 0 0 0 1.792 30.976 190.72 190.72 0 0 1 2.816 22.272c0 10.752 1.536 21.504 2.816 32.256 2.048 15.616 4.608 31.488 6.656 47.104 0 6.912 1.792 14.08 2.56 20.992s1.792 21.248 2.816 31.744c0 6.4 1.536 12.8 2.56 19.2 0 0 1.792 2.304 3.84 4.608 3.072-11.776 5.376-21.76 8.192-31.744s5.888-20.224 8.96-30.464 3.584-14.336 5.632-21.504 4.608-15.36 6.656-23.296 3.584-14.336 5.632-21.248 4.352-15.104 6.4-22.784 3.84-14.08 5.632-21.248l6.656-23.808c2.048-7.168 3.584-14.592 5.632-22.016s4.352-15.104 6.656-22.784 3.584-13.824 5.632-20.736 0-7.424 3.072-9.216a12.544 12.544 0 0 1 10.24-2.304c13.056 4.608 25.6 10.496 38.912 15.36l40.448 15.104 32 12.544a176.896 176.896 0 0 1 38.912 20.736 67.84 67.84 0 0 1 24.064 29.696 64 64 0 0 1 2.816 17.408c0 10.752 1.536 21.504 2.816 32.256l4.608 38.144v1.792c0 12.8 1.792 25.6 2.816 38.4 0 8.96 1.28 17.664 2.56 25.6a28.928 28.928 0 0 1-28.672 28.672H214.528a27.904 27.904 0 0 1-25.6-10.496 39.68 39.68 0 0 1-5.12-33.024 15.36 15.36 0 0 0 0-3.328c0-12.544 1.792-25.6 3.072-37.888s2.816-21.504 4.352-32v-1.28a337.408 337.408 0 0 1 3.072-37.632 76.8 76.8 0 0 1 10.496-35.84 109.312 109.312 0 0 1 29.44-27.136 302.848 302.848 0 0 1 56.32-25.6c15.104-5.888 29.952-12.032 45.056-18.176s25.6-9.984 38.144-14.592a9.728 9.728 0 0 1 12.8 7.936c1.792 7.936 4.608 15.616 6.656 23.296s3.584 14.336 5.632 21.504 4.608 15.616 6.656 23.296 3.584 13.824 5.632 20.736l9.216 32.768c2.048 6.912 3.584 13.824 5.376 20.736s4.608 15.872 6.912 23.808 3.584 14.336 5.632 21.504 4.608 15.36 6.656 23.296 3.84 14.336 5.632 21.504 5.12 19.712 7.68 29.696l4.096 3.584zM358.4 348.16c2.304-12.544 4.864-28.16 8.192-43.776a145.664 145.664 0 0 1 22.016-51.2 153.6 153.6 0 0 1 59.392-54.016 113.92 113.92 0 0 1 35.328-12.288A210.688 210.688 0 0 1 512 183.296a142.848 142.848 0 0 1 29.184 3.584 146.432 146.432 0 0 1 25.6 7.68 147.968 147.968 0 0 1 59.392 44.288 179.2 179.2 0 0 1 27.904 47.104 184.32 184.32 0 0 1 7.936 30.72 139.52 139.52 0 0 1 3.584 28.416 303.36 303.36 0 0 1-3.072 38.912c0 7.68-3.328 15.104-5.12 22.528a171.52 171.52 0 0 1-17.408 41.216 181.248 181.248 0 0 1-47.104 57.088 132.096 132.096 0 0 1-43.008 23.552 115.456 115.456 0 0 1-43.008 6.656 130.816 130.816 0 0 1-64.512-23.04 153.6 153.6 0 0 1-44.032-43.52 332.8 332.8 0 0 1-21.504-37.888 243.2 243.2 0 0 1-12.032-35.328 111.872 111.872 0 0 1-2.816-18.432c0-8.704-2.048-17.152-3.328-29.184z m0 0" fill="#FFFFFF" p-id="10872"></path></svg>