<?xml version="1.0" standalone="no"?><!DOCTYPE svg PUBLIC "-//W3C//DTD SVG 1.1//EN" "http://www.w3.org/Graphics/SVG/1.1/DTD/svg11.dtd"><svg t="1582084960416" class="icon" viewBox="0 0 1024 1024" version="1.1" xmlns="http://www.w3.org/2000/svg" p-id="4246" xmlns:xlink="http://www.w3.org/1999/xlink" width="200" height="200"><defs><style type="text/css"></style></defs><path d="M883.2 851.2H102.4c-57.6 0-102.4-51.2-102.4-115.2v-448c0-64 44.8-115.2 102.4-115.2h780.8C960 172.8 1024 243.2 1024 332.8v70.4l-19.2 19.2c-44.8 0-76.8 38.4-76.8 89.6s32 83.2 76.8 89.6l19.2 19.2v70.4c0 89.6-64 160-140.8 160zM102.4 211.2c-38.4 0-64 32-64 76.8v454.4c0 38.4 32 76.8 64 76.8h780.8c57.6 0 108.8-51.2 108.8-121.6v-64C934.4 620.8 896 576 896 512s38.4-108.8 96-121.6v-57.6c0-64-51.2-121.6-108.8-121.6H102.4z" fill="" p-id="4247"></path><path d="M288 281.6c-12.8 0-19.2-6.4-19.2-19.2v-38.4c0-12.8 6.4-19.2 19.2-19.2s19.2 6.4 19.2 19.2v38.4c0 12.8-6.4 19.2-19.2 19.2zM288 716.8c-12.8 0-19.2-6.4-19.2-19.2V614.4c0-12.8 6.4-19.2 19.2-19.2s19.2 6.4 19.2 19.2v76.8c0 12.8-6.4 25.6-19.2 25.6z m0-147.2c-12.8 0-19.2-6.4-19.2-19.2V473.6c0-12.8 6.4-19.2 19.2-19.2s19.2 6.4 19.2 19.2v76.8c0 12.8-6.4 19.2-19.2 19.2z m0-140.8c-12.8 0-19.2-6.4-19.2-19.2V326.4c0-12.8 6.4-19.2 19.2-19.2s19.2 12.8 19.2 19.2v76.8c0 12.8-6.4 25.6-19.2 25.6zM288 819.2c-12.8 0-19.2-6.4-19.2-19.2v-38.4c0-12.8 6.4-19.2 19.2-19.2s19.2 6.4 19.2 19.2v38.4c0 12.8-6.4 19.2-19.2 19.2zM646.4 569.6h83.2c12.8 0 19.2 6.4 19.2 19.2 0 12.8-6.4 19.2-19.2 19.2h-83.2v70.4c0 6.4 0 12.8-6.4 19.2 0 0-6.4 6.4-12.8 6.4s-12.8 0-12.8-6.4c0 0-6.4-6.4-6.4-19.2V601.6H524.8c-12.8 0-19.2 0-19.2-12.8s6.4-19.2 19.2-19.2h83.2v-44.8H524.8c-12.8 0-19.2-6.4-19.2-19.2 0-12.8 6.4-19.2 12.8-19.2h64c-6.4-19.2-19.2-38.4-32-57.6L512 371.2c-6.4-12.8-6.4-19.2 6.4-25.6 6.4 0 6.4-6.4 12.8-6.4s6.4 6.4 12.8 12.8l83.2 140.8h12.8c12.8-25.6 25.6-44.8 38.4-70.4 12.8-25.6 25.6-44.8 38.4-70.4 6.4-6.4 6.4-12.8 12.8-12.8s6.4 0 12.8 6.4c6.4 0 6.4 6.4 6.4 12.8s0 6.4-6.4 12.8l-70.4 121.6h57.6c12.8 0 19.2 6.4 19.2 19.2 0 12.8-6.4 19.2-19.2 19.2h-83.2v38.4z" fill="" p-id="4248"></path></svg>