<?xml version="1.0" standalone="no"?><!DOCTYPE svg PUBLIC "-//W3C//DTD SVG 1.1//EN" "http://www.w3.org/Graphics/SVG/1.1/DTD/svg11.dtd"><svg t="1582089675911" class="icon" viewBox="0 0 1024 1024" version="1.1" xmlns="http://www.w3.org/2000/svg" p-id="7629" xmlns:xlink="http://www.w3.org/1999/xlink" width="200" height="200"><defs><style type="text/css"></style></defs><path d="M896.225255 571.654631V189.331755c0-34.288896-27.194394-62.193866-60.625274-62.193866H188.935511c-33.43088 0-60.625274 27.904971-60.625274 62.193866v382.322876c-23.471547 8.369239-40.416849 30.591646-40.416849 56.901403v3.789399c0 33.43088 27.194394 60.625274 60.625274 60.625274h33.461596l-44.867679 149.548691c-3.739229 12.471947-1.430368 25.635017 6.354233 36.08479 7.775385 10.449774 19.704673 16.448718 32.739757 16.448718 15.540531 0 29.532948-8.64364 36.499464-22.556194l89.763002-179.526005h427.098405l89.771194 179.536244c6.956277 13.903339 20.948694 22.546979 36.499464 22.546979 13.024845 0 24.954133-5.989729 32.729518-16.448718 7.785624-10.449774 10.094485-23.602605 6.354233-36.095029l-44.866655-149.539476h25.960612c33.43088 0 60.625274-27.194394 60.625274-60.625274v-3.789399c0-26.310781-16.944278-48.533188-40.415825-56.901403zM168.72811 189.331755c0-12.008127 9.068552-21.777017 20.208425-21.777017h646.66447c11.139872 0 20.208425 9.76889 20.208424 21.777017v378.599005H168.72811V189.331755z m7.833747 665.076999a0.401363 0.401363 0 0 1-0.355288 0.227303l-0.374742-0.503752 48.349913-161.162622h33.095045L176.561857 854.408754z m679.582383 0.068601c-0.118771 0.157678-0.167917 0.157678-0.306142 0.157678L774.758667 692.96866h33.084807l48.300766 161.508695z m40.081015-222.132946c0 11.139872-9.068552 20.208425-20.208425 20.208425H148.518662c-11.139872 0-20.208425-9.068552-20.208425-20.208425v-3.789399c0-11.139872 9.068552-20.208425 20.208425-20.208425h727.497144c11.139872 0 20.208425 9.068552 20.208425 20.208425v3.789399z" fill="#22C67F" p-id="7630"></path><path d="M558.613403 489.755067l199.838866-250.000032-31.57048-25.235701-174.765962 218.632281-148.278049-115.090854-24.78212 31.926792 0.064505 0.049147-113.03694 146.2098 31.974914 24.719664 112.988818-146.147344 130.380533 101.197754z" fill="#74E8AE" p-id="7631"></path></svg>