<?xml version="1.0" standalone="no"?><!DOCTYPE svg PUBLIC "-//W3C//DTD SVG 1.1//EN" "http://www.w3.org/Graphics/SVG/1.1/DTD/svg11.dtd"><svg t="1582084544237" class="icon" viewBox="0 0 1024 1024" version="1.1" xmlns="http://www.w3.org/2000/svg" p-id="3166" xmlns:xlink="http://www.w3.org/1999/xlink" width="200" height="200"><defs><style type="text/css"></style></defs><path d="M720.618 674.42H294.247V270.249h426.371V674.42z m-393.574-33.681h360.775V303.931H327.044v336.808z" fill="#09B6BA" p-id="3167"></path><path d="M327.044 674.452H64.663V481.741l119.405-110.417h142.977l-0.001 303.128zM97.461 640.773h196.786V405.005h-97.56L97.462 496.74v144.032h-0.001z" fill="#09B6BA" p-id="3168"></path><path d="M212.189 757.768c-45.225 0-81.995-37.826-81.995-84.203h32.798c0 27.826 22.1 50.521 49.196 50.521 27.161 0 49.196-22.695 49.196-50.521h32.798c0 46.377-36.768 84.203-81.993 84.203zM572.963 757.768c-45.225 0-81.994-37.826-81.994-84.203h32.798c0 27.826 22.1 50.521 49.196 50.521 27.161 0 49.195-22.695 49.195-50.521h32.799c0.001 46.377-36.768 84.203-81.994 84.203zM755.031 641.74h202.83v30.435h-202.83zM755.031 599.416h129.664v30.435H755.031zM755.032 555.665h76.409V586.1h-76.409z" fill="#09B6BA" p-id="3169"></path></svg>