<?xml version="1.0" standalone="no"?><!DOCTYPE svg PUBLIC "-//W3C//DTD SVG 1.1//EN" "http://www.w3.org/Graphics/SVG/1.1/DTD/svg11.dtd"><svg t="1585620780987" class="icon" viewBox="0 0 1024 1024" version="1.1" xmlns="http://www.w3.org/2000/svg" p-id="3634" xmlns:xlink="http://www.w3.org/1999/xlink" width="200" height="200"><defs><style type="text/css"></style></defs><path d="M142.144 962.752c-38.016 0-71.424-18.88-99.52-56.128-25.536-33.856-35.2-68.16-28.608-101.76 12.8-65.856 83.648-108.224 140.544-142.272 16.832-10.112 32.384-19.328 44.032-28.096 60.224-45.376 79.296-97.216 65.728-178.816-14.528-87.488 46.4-160.32 82.176-194.624l-1.28-1.792 25.216-18.944 0.384-0.384h0.064L607.744 61.44l404.544 536.832-264 195.968-0.832-1.216c-39.36 23.04-99.264 41.088-136.768 41.088-26.24 0-50.944-5.44-73.28-16.064-75.008-35.776-128.128-32.896-190.08 13.888-11.52 8.704-24.64 21.12-39.04 34.496-45.824 42.88-102.912 96.32-166.144 96.32zM385.408 312.64c-27.264 27.392-67.008 77.952-57.984 132.544 17.6 105.92-10.24 180.096-90.304 240.448-13.12 9.856-30.656 20.48-49.728 31.872-43.52 26.048-103.168 61.76-110.592 99.648-2.944 15.232 2.56 31.872 16.96 51.008 23.04 30.592 42.112 30.592 48.384 30.592 38.016 0 84.8-43.84 122.432-79.04 16.192-15.168 31.168-29.056 44.288-38.912 80.448-60.672 159.168-66.624 256-20.544 44.224 20.992 108.864-0.256 143.424-19.136L385.408 312.64z m49.408-40.768l326.4 433.088 161.216-119.616L595.136 151.04 434.816 271.872z" p-id="3635"></path></svg>